# xmcd
#
# Track frame offsets: 
#        150
#        18333
#        37942
#        50463
#        81701
#        113478
#        129214
#        146794
#        162967
#        176709
#        195541
#        219355
#        246203
#        264584
#        283809
#
# Disc length: 4037 seconds
#
# Revision: 0
# Processed by: cddbd v1.5.2PL0 Copyright (c) Steve Scherf et al.
# Submitted via: ExactAudioCopy v0.99pb4
#
DISCID=d50fc30f
DTITLE=Hubert Sumlin and Friends - Live from the American Folk Blues Fes
DTITLE=tival
DYEAR=2013
DGENRE=Blues
TTITLE0=No Title Boogie - Hubert Sumlin Feat. Sunnyland Slim
TTITLE1=One Day I Get Luckey - Hubert Sumlin Feat. Carey Bell
TTITLE2=Slip In Mules - Hubert Sumlin Feat. Sugar Pie Desanto
TTITLE3=Man And The Blues - Hubert Sumlin Feat. Lurrie and Carey Bell
TTITLE4=I Need You So Bad - Hubert Sumlin Feat. Lurrie and Carey Bell
TTITLE5=Everything I Do Gonna Be Funky - Hubert Sumlin Feat. Louisiana
TTITLE5=Red
TTITLE6=Everytime I Get To Drinkin' - Hubert Sumlin Feat. Sunnyland Sl
TTITLE6=im
TTITLE7=Gamblin' Woman - Hubert Sumlin Feat. Eddie Taylor
TTITLE8=I Got A Little Thing They Call It Swing - Hubert Sumlin Feat. 
TTITLE8=Eddie Taylor
TTITLE9=Dissatisfied - Hubert Sumlin Feat. Sonny Boy Williamson
TTITLE10=Sunnyland's New Orleans Boogie - Hubert Sumlin Feat. Sunnylan
TTITLE10=d Slim
TTITLE11=Dust My Broom - Hubert Sumlin Feat. Howlin' Wolf
TTITLE12=I Love - Hubert Sumlin Feat. Louisiana Red
TTITLE13=There'll Be A Day - Hubert Sumlin Feat. Eddie Taylor
TTITLE14=I'm Trying To Make London My Home - Hubert Sumlin Feat. Sonny
TTITLE14=Boy Williamson
EXTD=
EXTT0=
EXTT1=
EXTT2=
EXTT3=
EXTT4=
EXTT5=
EXTT6=
EXTT7=
EXTT8=
EXTT9=
EXTT10=
EXTT11=
EXTT12=
EXTT13=
EXTT14=
PLAYORDER=
